# xmcd
#
# Track frame offsets:
#	150
#	16887
#	34574
#	53354
#	67291
#	87880
#	107937
#	126044
#	143796
#	161608
#	178158
#	193392
#	211914
#	231606
#	251788
#	279870
#	292067
#	307599
#
# Disc length: 4335
#
# Revision: 6
# Processed by: cddbd v1.5.1PL0 Copyright (c) Steve Scherf et al.
# Submitted via: ExactAudioCopy v0.90b4
# Normalized: r4:DSETVAR1,TDELIM( - ),TSWAP
#
DISCID=0810ed12
DTITLE=Various Artist - Radiottanta [Disk 2]
DYEAR=1900
DGENRE=
TTITLE0=Howard Jones - What Is Love
TTITLE1=Talk Talk - It's My Life
TTITLE2=Tears For Fears - Everybody Wants To Rule The World
TTITLE3=Living In A Box - Living In A Box
TTITLE4=Communards - Don't Leave Me This Way
TTITLE5=John Waite - Missing You
TTITLE6=Cyindi Lauper - Time After Time
TTITLE7=Cars - Drive
TTITLE8=Cock Robin - The Promise You Made
TTITLE9=Mike Oldfield - Moonlight Shadow
TTITLE10=Nik Kershaw - I Won't Let The Sun Go Down On Me
TTITLE11=Janet Jackson - Nasty
TTITLE12=Curiosity Killed The Cat - Down To Earth
TTITLE13=Yes - Owner Of A Lonely Heart
TTITLE14=Grace Jones - Slave To The Rhythm
TTITLE15=Soft Cell - Tainted Love
TTITLE16=Psychedelic Furs - Heaven
TTITLE17=De Barge - Rhythm Of The Night
EXTD=
EXTT0=
EXTT1=
EXTT2=
EXTT3=
EXTT4=
EXTT5=
EXTT6=
EXTT7=
EXTT8=
EXTT9=
EXTT10=
EXTT11=
EXTT12=
EXTT13=
EXTT14=
EXTT15=
EXTT16=
EXTT17=
PLAYORDER=
